<?xml version="1.0" encoding="utf-8"?>
<!-- Generator: Adobe Illustrator 23.1.1, SVG Export Plug-In . SVG Version: 6.00 Build 0)  -->
<svg version="1.1" id="Layer_1" xmlns="http://www.w3.org/2000/svg" xmlns:xlink="http://www.w3.org/1999/xlink" x="0px" y="0px"
	 viewBox="0 0 230.7 202.2" style="enable-background:new 0 0 230.7 202.2;" xml:space="preserve">
<style type="text/css">
	.st0{fill:#FFC414;}
	.st1{fill:#FFD85F;}
	.st2{fill:url(#SVGID_1_);}
</style>
<g transform="translate(-128.793 -103.81)">
	<g transform="translate(128.793 224.112)">
		<path class="st0" d="M0.4,27.5L10.9,3.7c0.6-1.6,2.2-2.7,3.9-2.6h0.4c1.7,0,3.2,1,3.8,2.6l10.5,23.8c0.2,0.4,0.3,0.9,0.3,1.3
			c0,1.7-1.4,3.2-3.1,3.2c0,0,0,0,0,0c-1.4,0-2.7-0.9-3.2-2.3l-2-4.7H8.2l-2.1,5C5.6,31.2,4.4,32,3.1,32C1.4,32,0,30.6,0,29
			c0,0,0,0,0-0.1C0,28.4,0.2,27.9,0.4,27.5z M19.1,19.1l-4.2-10l-4.2,10H19.1z"/>
		<path class="st0" d="M33,3.3C33,1.5,34.5,0,36.3,0c1.8,0,3.3,1.5,3.3,3.3c0,0,0,0,0,0v25.4c0,1.8-1.5,3.3-3.3,3.3
			c-1.8,0-3.3-1.5-3.3-3.3V3.3z"/>
		<path class="st0" d="M65,28.7c0,1.8-1.5,3.3-3.3,3.3c-1.8,0-3.3-1.5-3.3-3.3v-0.3c-1.5,1.9-3.5,3.7-6.8,3.7c-5,0-7.9-3.3-7.9-8.6
			V11.6c0-1.8,1.5-3.3,3.3-3.3c1.8,0,3.3,1.5,3.3,3.3v9.9c0,3.1,1.5,4.7,4,4.7s4.1-1.6,4.1-4.7v-9.9c0-1.8,1.5-3.3,3.3-3.3
			c1.8,0,3.3,1.5,3.3,3.3L65,28.7z"/>
		<path class="st0" d="M71,37.1c-1.4-0.5-2.2-2-1.7-3.4c0.5-1.4,2-2.2,3.4-1.7c0.1,0,0.2,0.1,0.3,0.1c2,0.9,4.2,1.4,6.4,1.4
			c4.5,0,6.6-2.2,6.6-6.3v-1.1c-1.7,2.4-4.6,3.8-7.5,3.8c-5.4,0-10.3-3.9-10.3-10.8V19c0-6.9,5-10.8,10.3-10.8
			c2.9-0.1,5.6,1.2,7.5,3.5v0c0-1.8,1.5-3.3,3.3-3.3c1.8,0,3.3,1.5,3.3,3.3v14.9c0,4.1-1,7.2-2.9,9.1c-2.2,2.2-5.5,3.1-10,3.1
			C76.6,38.8,73.7,38.2,71,37.1z M85.9,19.1L85.9,19.1c-0.2-3.2-2.8-5.6-5.9-5.4c-2.9,0.1-5.2,2.5-5.3,5.3v0.1
			c0,2.9,2.3,5.3,5.2,5.4c0.1,0,0.3,0,0.4,0c2.9,0.2,5.5-2.1,5.6-5C85.9,19.3,85.9,19.2,85.9,19.1L85.9,19.1z"/>
		<path class="st0" d="M117.5,28.7c0,1.8-1.5,3.3-3.3,3.3c-1.8,0-3.3-1.5-3.3-3.3v-0.3c-1.5,1.9-3.5,3.7-6.8,3.7
			c-5,0-7.9-3.3-7.9-8.6V11.6c0-1.8,1.5-3.3,3.3-3.3c1.8,0,3.3,1.5,3.3,3.3v9.9c0,3.1,1.5,4.7,4,4.7s4.1-1.6,4.1-4.7v-9.9
			c0-1.8,1.5-3.3,3.3-3.3c1.8,0,3.3,1.5,3.3,3.3L117.5,28.7z"/>
		<path class="st0" d="M132.6,32.3c-6.9,0-12.1-4.9-12.1-11.9v-0.1c0-6.6,4.7-12,11.4-12c7.7,0,11.1,6.3,11.1,11.1
			c0.1,1.6-1.2,3.1-2.8,3.1c-0.1,0-0.2,0-0.2,0h-13c0.4,2.7,2.9,4.7,5.7,4.5c1.7,0,3.3-0.5,4.7-1.6c0.5-0.4,1-0.5,1.6-0.5
			c1.4,0,2.5,1.1,2.5,2.5c0,0,0,0.1,0,0.1c0,0.7-0.3,1.4-0.9,1.9C138.4,31.3,135.6,32.3,132.6,32.3z M136.9,18.4
			c-0.4-2.9-2.1-4.9-4.9-4.9c-2.7,0-4.5,1.9-5,4.9H136.9z"/>
		<path class="st1" d="M2.1,47.8c0-1.8,1.5-3.3,3.3-3.3c0,0,0,0,0,0h10.5c3.8,0,6.8,1.1,8.8,3.1c1.8,1.9,2.7,4.3,2.6,6.9v0.1
			c0.2,4.1-2.2,7.8-6,9.2l4.6,5.6c0.7,0.7,1,1.6,1.1,2.5c0,1.7-1.4,3.1-3.1,3.1c0,0,0,0,0,0c-1.3,0-2.5-0.6-3.3-1.7L14,65H8.7v6.6
			c0,1.8-1.5,3.3-3.3,3.3s-3.3-1.5-3.3-3.3V47.8z M15.4,59.2c3.2,0,5.1-1.7,5.1-4.3v-0.1c0-2.8-2-4.3-5.2-4.3H8.7v8.7H15.4z"/>
		<path class="st1" d="M29.5,68.1L29.5,68.1c0-5.1,3.8-7.5,9.3-7.5c1.9,0,3.8,0.3,5.7,0.9v-0.4c0-2.7-1.7-4.2-5-4.2
			c-1.5,0-3.1,0.2-4.5,0.6c-0.3,0.1-0.6,0.2-0.9,0.2c-1.5,0-2.7-1.1-2.7-2.6c0,0,0,0,0-0.1c0-1.1,0.7-2.1,1.8-2.5
			c2.4-0.9,4.9-1.3,7.4-1.2c3.6,0,6.2,0.9,7.8,2.6c1.7,1.7,2.5,4.3,2.5,7.4v10.5c0,1.7-1.4,3.1-3.1,3.1c0,0,0,0,0,0
			c-1.6,0.1-3-1.1-3.1-2.7c0,0,0,0,0,0v0c-1.8,2-4.3,3-7,2.9C33,75.1,29.5,72.6,29.5,68.1z M44.5,66.6v-1.2
			c-1.3-0.6-2.7-0.9-4.2-0.9c-2.8,0-4.5,1.1-4.5,3.2v0.1c0,1.8,1.5,2.8,3.6,2.8C42.4,70.6,44.5,68.9,44.5,66.6L44.5,66.6z M39,48.2
			c0-0.4,0.2-0.8,0.4-1.2l2.4-3.7c0.5-0.9,1.4-1.5,2.5-1.5c1.6,0,3.7,1,3.7,2c0,0.6-0.4,1.2-0.9,1.6l-2.7,2.5c-1,1-2.4,1.5-3.8,1.4
			C39.6,49.3,39,48.9,39,48.2L39,48.2z"/>
		<path class="st1" d="M54.7,54.6c0-1.8,1.5-3.3,3.3-3.3c1.8,0,3.3,1.5,3.3,3.3c0,0,0,0,0,0v0.3c1.6-2.4,4.3-3.8,7.2-3.8
			c5.4,0,10.5,4.2,10.5,11.9v0.1c0,7.7-5,11.9-10.5,11.9c-2.8,0.1-5.5-1.2-7.2-3.5v6.9c0,1.8-1.5,3.3-3.3,3.3
			c-1.8,0-3.3-1.5-3.3-3.3c0,0,0,0,0,0V54.6z M72.4,63.2L72.4,63.2c0-3.9-2.6-6.5-5.7-6.5s-5.6,2.5-5.6,6.4v0.1
			c0,3.8,2.5,6.4,5.6,6.4S72.4,67.1,72.4,63.2L72.4,63.2z"/>
		<path class="st1" d="M82,46.1c0-1.9,1.6-3.1,3.7-3.1s3.7,1.2,3.7,3.1v0.1c0,1.9-1.6,3.1-3.7,3.1S82,48,82,46.1L82,46.1z
			 M82.3,54.6c0-1.8,1.5-3.3,3.3-3.3c1.8,0,3.3,1.5,3.3,3.3c0,0,0,0,0,0v17.1c0,1.8-1.5,3.3-3.3,3.3c-1.8,0-3.3-1.5-3.3-3.3
			c0,0,0,0,0,0V54.6z"/>
		<path class="st1" d="M116.6,71.7c0,1.8-1.5,3.3-3.3,3.3c-1.8,0-3.3-1.5-3.3-3.3c0,0,0,0,0,0v-0.3c-1.6,2.4-4.3,3.8-7.2,3.8
			c-5.4,0-10.5-4.2-10.5-11.9v-0.1c0-7.7,5-11.9,10.5-11.9c2.8-0.1,5.5,1.2,7.2,3.5v-8.4c0-1.8,1.5-3.3,3.3-3.3
			c1.8,0,3.3,1.5,3.3,3.3c0,0,0,0,0,0V71.7z M98.9,63.1L98.9,63.1c0,3.9,2.6,6.5,5.7,6.5s5.6-2.5,5.6-6.4v-0.1
			c0-3.8-2.5-6.4-5.6-6.4S98.9,59.2,98.9,63.1L98.9,63.1z"/>
		<path class="st1" d="M119.6,63.3L119.6,63.3c0-6.7,5.3-12.1,12.6-12.1c7.2,0,12.5,5.3,12.5,11.9v0.1c0,6.6-5.3,12-12.6,12
			C124.9,75.2,119.6,69.9,119.6,63.3z M138.2,63.3L138.2,63.3c0.1-3.5-2.5-6.3-5.9-6.5c-0.1,0-0.1,0-0.2,0c-3.8,0-6,2.9-6,6.3v0.1
			c-0.1,3.4,2.5,6.2,5.9,6.4c0.1,0,0.1,0,0.2,0C135.9,69.6,138.2,66.7,138.2,63.3L138.2,63.3z"/>
	</g>
	
		<linearGradient id="SVGID_1_" gradientUnits="userSpaceOnUse" x1="-1244.2756" y1="1696.7208" x2="-1243.6647" y2="1697.1879" gradientTransform="matrix(128.415 0 0 -167.96 160034.4375 285213.6875)">
		<stop  offset="0" style="stop-color:#FFC414"/>
		<stop  offset="1" style="stop-color:#FFD85F"/>
	</linearGradient>
	<path class="st2" d="M354.6,185.4c-2.7,0-4.9,2.2-4.9,4.9l0,0v40.4c0,10-2.7,18.3-7.9,23.9c-4.2,4.7-10.3,7.4-16.7,7.4
		c-12.1,0-25-9.8-25-31.4v-15.1c27.4-0.5,39.9-18,39.9-34.3c0-9.2-3.9-17.9-10.7-24.1c-7.3-6.8-17.4-10.4-29.3-10.6v-1.6
		c0-12.5-3.6-23-10.5-30.5c-6.1-6.8-14.7-10.6-23.8-10.6c-9.2,0-17.9,3.9-24.1,10.7c-7,7.5-10.7,18-10.7,30.4v46.5
		c0,2.7,2.1,4.9,4.8,4.9s4.9-2.1,4.9-4.8c0,0,0-0.1,0-0.1v-35.2h49.6v49.6h-54.5c-2.7,0-4.9,2.2-4.9,4.9s2.2,4.9,4.9,4.9h54.5v15.1
		c0,27,17.5,41.1,34.8,41.1c16.5,0,34.3-12.9,34.3-41.1v-40.4C359.5,187.5,357.3,185.4,354.6,185.4
		C354.6,185.4,354.6,185.4,354.6,185.4z M330.3,181.3c0,12-9.4,24.1-30.2,24.5v-49.6C320.9,156.7,330.3,169.4,330.3,181.3
		L330.3,181.3z M240.8,146.5v-1.6c0-21.5,13-31.4,25-31.4c12.2,0,24.6,9.7,24.6,31.4v1.6H240.8z"/>
</g>
</svg>
