<?xml version="1.0" encoding="utf-8"?>
<!-- Generator: Adobe Illustrator 23.1.1, SVG Export Plug-In . SVG Version: 6.00 Build 0)  -->
<svg version="1.1" id="Layer_1" xmlns="http://www.w3.org/2000/svg" xmlns:xlink="http://www.w3.org/1999/xlink" x="0px" y="0px"
	 viewBox="0 0 200 200" style="enable-background:new 0 0 200 200;" xml:space="preserve">
<style type="text/css">
	.st0{fill:#FFFFFF;}
	.st1{fill:#03A5E2;}
	.st2{fill:#0399DA;}
	.st3{fill:#038ED1;}
	.st4{fill:#0382C8;}
	.st5{fill:#0278C0;}
	.st6{fill:#236DB9;}
	.st7{fill:#4860AF;}
	.st8{fill:#6050A8;}
	.st9{fill:#6F3EA0;}
	.st10{fill:#7B329C;}
	.st11{fill:#8E2F91;}
	.st12{fill:#A62D7C;}
	.st13{fill:#EE1E37;}
	.st14{fill:#E71F3E;}
	.st15{fill:#DF2347;}
	.st16{fill:#D8254E;}
	.st17{fill:#CF2855;}
	.st18{fill:#C72A59;}
	.st19{fill:#BE2C60;}
	.st20{fill:#B72C6A;}
	.st21{fill:#AE2F73;}
	.st22{fill:none;}
</style>
<g transform="translate(2 29)">
	<g transform="translate(0 106.858)">
		<path class="st0" d="M60.3,29.3l5.6-3.3c0,0,2.8,3.6,6.4,3.7s6.5-1.9,3.6-4.3s-12.8-2-12-9.8s16.3-10.5,22.6-1.3l-5.1,3.1
			c-1.4-2-3.7-3.2-6.1-3.4c-4.3-0.5-5.4,3.2,0.7,4.8s10.8,4.6,8.2,11.2S64.7,38.6,60.3,29.3z"/>
		<path class="st0" d="M86.4,34.4L94.2,0h12.9v23l11.5-23h13l-7.6,34.4h-8.3l5.8-25.9L109,34.4h-7.5L100.2,8l-5.6,26.4H86.4z"/>
		<path class="st0" d="M180.5,0l-3,13.3c-1.4-2.3-3.7-3.9-6.4-4.4c-5.6-1.2-11.4,3.9-13,11.4c-1.8,9.6,1.5,13.5,7.1,14.7
			c2.7,0.6,5.6-0.1,7.8-1.8l-0.4,2h7.7L187.9,0L180.5,0z M175.2,23.4c-0.9,4.3-3.9,6.7-6.7,6.1s-4.3-2.8-3.3-8.3
			c0.9-4.3,3.9-7.3,6.7-6.7S176.5,17.8,175.2,23.4L175.2,23.4z"/>
		<path class="st0" d="M25.9,0H8.2L0,34.4h8.6l2.7-12h6.4l4.5,12h9.4l-5.7-13.2C37.2,21.2,37.2,0,25.9,0z M22.6,15.6h-9.8L15,6.3
			h7.6C27.6,6.3,27.6,15.6,22.6,15.6z"/>
		<path class="st0" d="M60.1,23.4c0,0,2.4-14.9-11.4-14.9S34.1,23.4,34.1,23.4c-0.6,13,17.3,16.3,24.4,5.9L53,26
			c-3.6,6.4-12.7,4.4-11.5-2.5L60.1,23.4z M48.5,13.6c4.8,0,5.1,4.9,5.1,4.9H42.6C42.6,18.5,43.7,13.6,48.5,13.6L48.5,13.6z"/>
		<path class="st0" d="M154.7,23.4c0,0,2.4-14.9-11.4-14.9s-14.6,14.9-14.6,14.9c-0.6,13,17.3,16.3,24.4,5.9l-5.5-3.4
			c-3.6,6.4-12.7,4.4-11.5-2.5L154.7,23.4z M143.1,13.6c4.8,0,5.1,4.9,5.1,4.9h-10.9C137.2,18.5,138.3,13.6,143.1,13.6L143.1,13.6z"
			/>
	</g>
	<ellipse class="st1" cx="7.3" cy="45.1" rx="7.1" ry="7.1"/>
	<ellipse class="st2" cx="16.7" cy="30.4" rx="6.4" ry="6.4"/>
	<ellipse class="st3" cx="26.8" cy="18.4" rx="5.9" ry="5.9"/>
	<circle class="st4" cx="38.7" cy="9.9" r="5.1"/>
	<circle class="st5" cx="51.2" cy="4.8" r="4.4"/>
	<circle class="st6" cx="63.4" cy="4.1" r="4.1"/>
	<ellipse class="st7" cx="74.6" cy="7.5" rx="3.6" ry="3.6"/>
	<ellipse class="st8" cx="83.3" cy="13.6" rx="3.3" ry="3.3"/>
	<ellipse class="st9" cx="90.3" cy="21.1" rx="2.9" ry="2.9"/>
	<ellipse class="st10" cx="95.6" cy="28.6" rx="2.7" ry="2.7"/>
	<ellipse class="st11" cx="99.8" cy="36.2" rx="2.4" ry="2.4"/>
	<circle class="st12" cx="103.1" cy="43.9" r="2.1"/>
	<ellipse class="st13" cx="190" cy="57.3" rx="7.1" ry="7.1"/>
	<ellipse class="st14" cx="179.2" cy="69.4" rx="6.4" ry="6.4"/>
	<ellipse class="st15" cx="167.8" cy="78" rx="5.9" ry="5.9"/>
	<circle class="st16" cx="155.2" cy="83.1" r="5.1"/>
	<circle class="st17" cx="142.7" cy="83.7" r="4.4"/>
	<circle class="st18" cx="131.7" cy="80.5" r="4.1"/>
	<ellipse class="st19" cx="122.8" cy="74.4" rx="3.6" ry="3.6"/>
	<ellipse class="st20" cx="116.1" cy="67" rx="3.3" ry="3.3"/>
	<ellipse class="st21" cx="110.8" cy="59.4" rx="2.9" ry="2.9"/>
	<ellipse class="st12" cx="106.3" cy="51.6" rx="2.7" ry="2.7"/>
</g>
<rect class="st22" width="200" height="200"/>
</svg>
