<?xml version="1.0" standalone="no"?>
<!DOCTYPE svg PUBLIC "-//W3C//DTD SVG 20010904//EN"
 "http://www.w3.org/TR/2001/REC-SVG-20010904/DTD/svg10.dtd">
<svg version="1.0" xmlns="http://www.w3.org/2000/svg"
 width="784.000000pt" height="784.000000pt" viewBox="0 0 784.000000 784.000000"
 preserveAspectRatio="xMidYMid meet">
<metadata>
Created by potrace 1.11, written by Peter Selinger 2001-2013
</metadata>
<g transform="translate(0.000000,784.000000) scale(0.100000,-0.100000)"
fill="#000000" stroke="none">
<path d="M4847 7343 c-1 -1 -74 -4 -162 -8 -160 -6 -200 -9 -272 -19 -21 -3
-60 -8 -88 -12 -27 -3 -52 -8 -55 -9 -3 -2 -33 -7 -65 -10 -33 -4 -80 -11
-105 -17 -25 -5 -52 -11 -60 -13 -14 -3 -200 -47 -210 -50 -3 -1 -12 -4 -20
-7 -8 -3 -67 -22 -130 -43 -63 -21 -135 -47 -160 -57 -120 -53 -303 -145 -370
-186 -76 -47 -270 -188 -325 -237 -109 -96 -238 -234 -301 -320 -16 -22 -32
-42 -35 -45 -20 -16 -134 -207 -184 -307 -32 -65 -65 -130 -72 -145 -8 -15
-13 -31 -11 -35 2 -5 -98 -8 -222 -9 -251 -1 -290 -5 -490 -44 -130 -26 -254
-64 -395 -120 -11 -4 -65 -30 -120 -56 -274 -132 -495 -326 -674 -593 -67 -98
-159 -282 -176 -351 -1 -3 -7 -17 -13 -32 -104 -249 -137 -673 -78 -1003 59
-329 208 -641 411 -855 180 -190 358 -297 665 -396 81 -27 291 -80 354 -90 21
-3 48 -8 60 -10 97 -21 361 -31 574 -20 95 5 122 3 122 -7 0 -7 18 -48 41 -92
123 -242 232 -396 404 -573 83 -85 238 -222 251 -222 3 0 13 -7 22 -17 55 -55
354 -225 512 -291 48 -20 258 -98 278 -103 4 -1 12 -3 17 -4 6 -1 26 -7 45
-13 57 -18 272 -70 310 -75 19 -3 78 -12 130 -21 52 -8 122 -18 155 -21 33 -3
74 -8 90 -10 94 -12 267 -19 465 -19 196 0 291 4 440 19 19 2 64 6 100 9 36 4
106 14 155 22 50 9 102 18 118 20 98 13 341 78 492 131 694 246 1190 712 1433
1348 65 171 108 333 130 490 9 68 9 2395 0 2470 -7 55 -20 127 -48 280 -6 33
-18 83 -26 111 -8 28 -16 60 -19 70 -11 53 -92 262 -137 354 -48 100 -154 271
-208 335 -44 53 -213 220 -270 266 -118 97 -323 230 -422 274 -18 9 -40 19
-48 24 -18 11 -83 40 -193 85 -137 57 -358 123 -557 166 -121 26 -123 26 -195
35 -32 3 -62 8 -66 10 -6 4 -131 20 -234 30 -83 9 -553 24 -558 18z m368 -837
c66 -3 127 -7 135 -10 8 -3 46 -7 83 -10 37 -3 71 -7 75 -9 4 -3 31 -8 60 -11
30 -3 73 -11 95 -16 23 -5 57 -12 76 -15 19 -3 37 -8 41 -10 4 -2 22 -7 41
-10 48 -9 45 -9 139 -38 239 -77 452 -184 604 -307 61 -48 146 -143 156 -175
37 -112 -7 -194 -135 -254 -58 -27 -182 -64 -255 -76 -19 -3 -60 -10 -90 -15
-62 -11 -65 -12 -240 -34 -119 -15 -204 -23 -350 -31 -36 -2 -126 -7 -200 -11
-259 -14 -770 -9 -1045 11 -27 2 -92 6 -144 10 -52 3 -97 8 -100 9 -3 2 -37 7
-76 10 -38 3 -79 8 -91 10 -12 2 -45 7 -75 11 -30 4 -56 8 -59 10 -3 1 -32 6
-65 9 -72 8 -96 12 -200 32 -44 8 -95 17 -112 19 -71 10 -99 15 -133 23 -19 5
-37 9 -40 9 -62 5 -210 39 -210 48 0 7 28 54 62 105 75 113 232 274 343 352
85 59 244 150 285 163 14 4 48 18 75 30 109 49 358 117 475 131 30 3 58 8 61
10 4 2 35 7 70 10 35 3 67 8 71 10 4 3 78 7 165 11 87 3 159 6 160 7 3 3 206
-2 348 -8z m-3161 -2469 c1 -522 -2 -953 -5 -959 -10 -16 -281 -14 -359 3 -19
4 -48 10 -65 12 -114 19 -307 79 -395 123 -95 47 -185 147 -243 269 -56 116
-81 200 -93 300 -3 33 -8 69 -10 80 -6 28 -6 213 -1 222 3 5 8 33 11 63 14
120 30 175 87 296 83 178 234 329 409 411 64 30 171 72 200 78 8 2 38 9 65 15
28 7 66 14 85 17 19 3 53 8 75 12 22 4 85 7 139 7 l100 -1 0 -948z m4934 83
c-1 -423 -2 -770 -2 -770 -1 0 -38 15 -81 33 -145 60 -531 178 -629 192 -21 3
-41 7 -45 10 -11 6 -251 49 -344 61 -23 3 -53 7 -67 10 -56 9 -177 19 -370 30
-152 9 -436 9 -585 0 -66 -4 -147 -9 -180 -11 -71 -4 -188 -15 -230 -20 -16
-2 -52 -7 -80 -10 -27 -3 -77 -10 -110 -15 -33 -5 -82 -11 -110 -15 -27 -3
-59 -8 -70 -10 -11 -3 -33 -7 -49 -10 -16 -2 -52 -9 -80 -15 -28 -5 -67 -12
-86 -15 -19 -2 -64 -12 -100 -20 -36 -9 -78 -18 -95 -21 -16 -2 -73 -16 -125
-29 -52 -13 -108 -26 -125 -28 -16 -3 -41 -9 -55 -15 -14 -5 -29 -10 -35 -11
-5 -1 -28 -6 -50 -12 -22 -6 -47 -12 -55 -14 -16 -3 -102 -30 -231 -71 -42
-13 -79 -24 -83 -24 -3 0 -6 347 -6 770 0 627 2 770 13 770 7 0 62 -9 123 -21
60 -11 120 -22 134 -25 14 -2 34 -6 46 -9 12 -3 39 -7 60 -10 21 -3 63 -11 92
-16 29 -6 70 -13 90 -15 20 -3 44 -7 52 -9 8 -3 34 -7 58 -10 87 -11 118 -15
142 -20 14 -3 48 -8 75 -10 28 -3 61 -7 75 -10 34 -7 93 -13 177 -20 39 -3 80
-7 92 -10 11 -2 61 -7 110 -10 49 -3 99 -8 111 -10 112 -22 1205 -22 1316 -1
11 2 67 7 125 11 57 4 118 8 134 10 32 4 100 11 205 21 36 3 67 7 70 9 3 2 28
6 55 9 218 28 481 89 630 144 44 17 83 31 87 31 3 1 6 -345 6 -769z m-1498
-1263 c19 -4 64 -9 100 -12 69 -5 278 -31 320 -40 14 -3 34 -7 45 -9 77 -15
178 -38 225 -51 30 -8 65 -17 76 -20 80 -18 293 -94 419 -150 136 -61 165 -75
165 -84 0 -15 -63 -119 -125 -206 -57 -79 -189 -218 -253 -265 -19 -14 -39
-30 -45 -35 -18 -17 -116 -79 -177 -113 -102 -57 -366 -160 -450 -176 -14 -2
-54 -11 -90 -20 -36 -8 -83 -18 -105 -21 -22 -4 -69 -11 -105 -16 -36 -6 -85
-12 -110 -15 -25 -2 -79 -8 -120 -13 -81 -9 -630 -8 -646 1 -5 3 -45 9 -89 13
-44 4 -83 9 -86 10 -5 4 -54 10 -139 20 -35 4 -220 51 -312 80 -204 64 -403
169 -556 292 -100 82 -252 244 -252 269 0 7 -4 14 -10 16 -5 2 -32 41 -60 87
-37 63 -47 87 -38 92 20 13 216 77 318 104 3 1 23 7 45 13 82 24 221 61 245
66 14 2 54 12 90 21 36 9 79 19 95 22 17 2 48 9 70 15 22 5 51 12 65 14 14 3
48 9 75 14 77 14 178 32 200 35 28 3 116 17 139 21 10 2 53 6 95 10 42 3 78 7
81 9 3 2 44 6 90 10 47 3 126 10 175 14 104 8 583 7 635 -2z"/>
</g>
</svg>
