<?xml version="1.0" encoding="utf-8"?>
<!-- Generator: Adobe Illustrator 22.1.0, SVG Export Plug-In . SVG Version: 6.00 Build 0)  -->
<svg version="1.1" xmlns="http://www.w3.org/2000/svg" xmlns:xlink="http://www.w3.org/1999/xlink" x="0px" y="0px"
	 viewBox="0 0 3153 1545" style="enable-background:new 0 0 3153 1545;" xml:space="preserve">
<style type="text/css">
	.st0{display:none;}
	.st1{fill:url(#SVGID_1_);}
	.st2{fill:url(#SVGID_2_);}
</style>
<g id="Layer_1" class="st0">
</g>
<g id="Layer_2">
	
		<linearGradient id="SVGID_1_" gradientUnits="userSpaceOnUse" x1="-702.1832" y1="1133.3356" x2="1542.327" y2="-162.5329" gradientTransform="matrix(1 0 0 -1 0 1546)">
		<stop  offset="0" style="stop-color:#000000"/>
		<stop  offset="1" style="stop-color:#171C26"/>
	</linearGradient>
	<path class="st1" d="M1551.8,1581.8c-12.3-31.9-29.4-61.3-47.9-89.8c-33.9-52.2-72.1-101.3-111.4-149.6
		c-77.5-95.4-158.1-188.2-234.1-284.8c-59.7-75.9-117-153.5-166-236.8c-26.4-44.9-50.5-90.9-68.8-139.8
		c-12.5-33.2-24.7-66.5-39.8-98.6c-30.8-65.6-70-125.8-118.5-179.9c-37.2-41.6-79-77.9-124.4-110.1c-2.4-1.7-4.7-4.2-8-3.1
		c-0.2-0.4-0.4-0.8-0.7-1.2c-2.7-3.2-6.2-5.2-9.6-7.4c-74.3-49.1-154.5-85.1-240.2-108.7c-73.6-20.3-148.3-33.5-224.9-34.1
		c-5.1-0.2-10.2,0-15.3,0.1c-2.2,0-4.5,0-6.7,0c-4-0.1-8-0.3-11.9-0.8c-9.3-0.2-18.7-0.1-28.1-0.1c-5.8,1.5-11.7,0.6-17.6,0.8
		c-20.6-0.1-41.2,0.2-61.7,2.4c-48.4,5.2-95.9,14.8-142.7,27.9c-26.9,7.5-52.8,17.9-79,27.5c-76.1,27.9-152.4,55.4-226.4,88.6
		c-68.1,30.5-134,64.8-194.9,108c-60.7,43-114.3,93.3-154,157c-29.7,47.7-49.9,99-57.4,154.9c-1.3,10-0.5,20.2-2.2,30.2
		c0,22.1,0,44.2,0,66.3c1.3,1.5,0.9,3.3,0.9,5c-0.8,38.7,6.4,76.4,16.5,113.4c28.9,106.1,75.8,204.2,136.9,295.3
		c50.2,74.9,111.6,139.7,181.6,196.4c63.5,51.4,132.6,94.3,205.5,130.9c63,31.6,128.2,57.7,194.9,80.4c13.8,4.7,61.2,19.5,64.7,20.7
		c20.1,6.7,40.7,11.9,61.2,17.3c88.9,23.4,179,40.6,269.8,54.4c114.3,17.4,229.4,27.3,344.8,34.6c48.1,3,96.2,5.1,144.4,5.5
		c36.6,0.3,73.2,1.7,109.7,1c6.6,0,13.3-0.2,19.9,0c14.6,0.5,29.3-1.2,43.9,0.9c75,0,150,0,225,0c3-1.7,6.3-0.8,9.4-0.8
		c45.8-0.1,91.6,0,137.5,0c17.7-0.3,35.4-0.2,53.1-0.6c31.9-0.8,63.1-5.1,93.7-13.8c19.4-5.5,38.1-12.8,54.5-24.7
		c24.1-17.4,38-40,37.4-70.8C1564.4,1623.3,1559.7,1602.2,1551.8,1581.8z"/>
</g>
<g id="Layer_3">
	
		<linearGradient id="SVGID_2_" gradientUnits="userSpaceOnUse" x1="3801.1797" y1="874.5017" x2="2099.9128" y2="574.5225" gradientTransform="matrix(1 0 0 -1 0 1546)">
		<stop  offset="0" style="stop-color:#000000"/>
		<stop  offset="9.153545e-03" style="stop-color:#000000"/>
		<stop  offset="0.6343" style="stop-color:#11141C"/>
		<stop  offset="1" style="stop-color:#171C26"/>
	</linearGradient>
	<path class="st2" d="M2125.3,1097.6c0,0-85.2-355.2,76.2-602.7s355.3-201.1,520.2-257.9S3158-63.7,3376.9,38.9
		c218.9,102.6,502.9,474.6,425.4,965.5s-1028.9,706.6-1426.4,531C2131,1397.4,2153.2,1242,2125.3,1097.6z"/>
</g>
</svg>
