<?xml version="1.0" encoding="utf-8"?>
<!-- Generator: Adobe Illustrator 22.1.0, SVG Export Plug-In . SVG Version: 6.00 Build 0)  -->
<svg version="1.1" id="Layer_1" opacity="0.5" xmlns="http://www.w3.org/2000/svg" xmlns:xlink="http://www.w3.org/1999/xlink"
	 x="0px" y="0px" viewBox="0 0 1254 611" style="enable-background:new 0 0 1254 611;" xml:space="preserve">
<style type="text/css">
	.st0{fill:url(#SVGID_1_);}
</style>
<linearGradient id="SVGID_1_" gradientUnits="userSpaceOnUse" x1="141.6839" y1="36.243" x2="1133.9054" y2="609.1024" gradientTransform="matrix(1 0 0 -1 0 611)">
	<stop  offset="0" style="stop-color:#000000"/>
	<stop  offset="1" style="stop-color:#171C26"/>
</linearGradient>
<path class="st0" d="M711,0c29.7,0,59.3,0,89,0c0.5,0.5,1.2,0.5,1.9,0.5c18-0.4,35.9,0.6,53.9,1.1c20.3,0.5,40.4,2.6,60.6,5
	c25.4,3,50.8,6.9,75.8,12.3c37.7,8,74.4,19,109.7,34.9c25.3,11.4,49.1,25.4,70.5,43.1c37.5,31.1,62.4,69.9,73.4,117.6
	c4.5,19.4,6.9,38.9,7.5,58.7c0.2,6.3-0.4,12.6,0.8,18.8c0,11.7,0,23.3,0,35c-1,8.7-0.9,17.5-1.4,26.3c-0.7,14.8-4,29-8.1,43
	c-8.1,27.4-20.7,52.6-38.2,75.3c-16.5,21.4-36.5,39.2-58.9,54.2c-32.1,21.5-67.3,36.3-104,47.8c-25.7,8-51.8,14-78.1,18.9
	c-22.1,4.1-44.3,7.1-66.6,9.8c-24.8,3-49.6,4.7-74.5,6.7c-6.1,0.5-12.3,0.4-18.4,0.5c-12.2,0.1-24.3,0.5-36.4,0.7
	c-14.7,0.2-29.3,0.4-43.9,0.4c-0.8,0-1.7-0.1-2.4,0.5c-30.7,0-61.3,0-92,0c-1.7-1-3.6-0.5-5.4-0.5c-17.5,0-35,0-52.5,0
	c-20,0.3-40-0.3-59.9-0.6c-19-0.3-37.9-0.4-56.8-1.7c-29.7-2.1-59.3-4.3-88.9-7.6c-34.9-3.9-69.7-8.9-104-16.5
	c-34.9-7.7-69-17.7-101-34.2c-19.1-9.9-36.5-22-51.1-37.8c-12.8-13.9-22.8-29.8-32.5-46c-22.7-38.2-41.4-78.3-56.1-120.2
	c-8.8-25.2-16.1-50.8-20.3-77.1c-1.6-9.8-1.6-19.9-2.1-29.8c-0.1-2,0.5-4-0.5-5.9c0-11.3,0-22.7,0-34c0.9-7.4,0.7-14.9,1.7-22.3
	c2.7-20.1,10.6-38.1,22.4-54.4c18.5-25.4,44-40.6,73.6-49.5c23.7-7.1,48.3-9.7,72.5-13.9c26.1-4.5,52.2-8.5,78.4-12.6
	c37.3-5.8,74.6-11.8,112.1-16.8c26.4-3.5,52.8-7.3,79.2-10.4c19.5-2.3,39-4.6,58.5-6.5c19.4-1.9,38.7-3.8,58.1-5.6
	c14.4-1.3,28.8-2.4,43.3-3.4c26.6-1.8,53.2-2.2,79.8-2.8c8.8-0.2,17.6-0.1,26.4-0.4C707.8,0.4,709.4,0.9,711,0z"/>
</svg>
