<?xml version="1.0" encoding="utf-8"?>
<!-- Generator: Adobe Illustrator 22.1.0, SVG Export Plug-In . SVG Version: 6.00 Build 0)  -->
<svg version="1.1" id="Layer_1" xmlns="http://www.w3.org/2000/svg" xmlns:xlink="http://www.w3.org/1999/xlink" x="0px" y="0px"
	 viewBox="0 0 723.9 490.2" style="enable-background:new 0 0 723.9 490.2;" xml:space="preserve">
<style type="text/css">
	.st0{fill:url(#SVGID_1_);}
</style>
<linearGradient id="SVGID_1_" gradientUnits="userSpaceOnUse" x1="361.9607" y1="1.517122e-03" x2="361.9607" y2="490.157" gradientTransform="matrix(1 0 0 -1 0 490.157)">
	<stop  offset="0" style="stop-color:#171C26"/>
	<stop  offset="0.2205" style="stop-color:#10131A"/>
	<stop  offset="0.6819" style="stop-color:#040507"/>
	<stop  offset="1" style="stop-color:#000000"/>
</linearGradient>
<path class="st0" d="M723.6,64.8c-1.9-13.6-10.1-22.8-20.7-30.4c-14.3-10.2-30.7-15.9-47.4-20.3C618.9,4.3,581.5,1,543.8,0.2
	c-66.5-1.4-132.4,4.6-197.5,17.9c-41.1,8.4-81.3,19.7-119.7,37C199,67.5,174,83.3,153.4,105.9c-18.1,19.8-38,37.8-57.6,56.2
	c-25.4,23.9-52,46.7-74.2,73.8C14.9,244.2,8.4,252.7,5,263c-2.7,3.6-2.4,8.4-5,12c0,5.7,0,11.3,0,17c0.7,10.8,5.8,19.6,12.3,27.7
	c5.7,7.2,12.1,13.8,19.3,19.4c22.9,17.8,46.3,34.8,70.2,51.1c33.6,22.9,67.6,45.1,103.7,63.9c105.4,56.8,176.9,31.7,191.2,21.7
	c22.3-15.6,42.8-33.4,62.6-52c40-37.5,77-77.9,112.4-119.7c10.6-12.5,21.3-25,31.1-38.3c2.3-3,4.5-6,6.8-8.9
	c11.1-14.3,22.4-28.3,33.2-42.9c15.9-21.5,31.1-43.6,45.1-66.5c11.7-19.1,23-38.5,31.7-59.3C722.5,80.9,724.8,73.2,723.6,64.8z"/>
</svg>
