<svg xmlns="http://www.w3.org/2000/svg" xmlns:xlink="http://www.w3.org/1999/xlink" width="700" height="700" viewBox="0 0 700 700"><defs><style>.a{opacity:0.19;fill:url(#a);}.b{fill:none;}</style><linearGradient id="a" x1="1.988" y1="0.5" x2="0.515" y2="0.5" gradientUnits="objectBoundingBox"><stop offset="0" stop-color="#fff" stop-opacity="0"/><stop offset="1" stop-color="#fff"/></linearGradient></defs><g transform="translate(-260 -4999)"><g transform="translate(-27.813 -24.812)"><path class="a" d="M512.972,310.349c-1.382-18.743-6.6-35.841-15.51-50.824L465.883,203.5l-.012-.016c-40.7-71.177-62.318-109.578-75.239-132.537-14.956-26.573-17.255-30.657-22.621-38.282C356.712,16.609,326.931,0,296.652,0,264.37,0,235.465,19.114,223.6,38,212.516,55.623,21.985,387.183,13.881,401.285-9.153,441.3,1.552,469.659,9.984,483c7.282,11.523,18.252,20.791,31.723,26.8a89.037,89.037,0,0,0,36.23,7.508q3.755,0,7.542-.3a104.113,104.113,0,0,0,54.235-20.969c18.23-13.689,36.391-29.853,46.935-54.212,4.057-6.791,61.932-112.555,110.356-182.954l86.772,156.032.091.157c9.478,15.912,20.97,25.8,34.156,29.4a41.747,41.747,0,0,0,11.015,1.467c8.778,0,17.85-2.687,26.726-7.974,22.339-13.306,42.1-42.3,51.576-75.671A151.734,151.734,0,0,0,512.972,310.349Zm-338.3,125.375c-9.7,22.549-25.713,38.066-42.307,50.526A91.886,91.886,0,0,1,84.517,504.8,78.035,78.035,0,0,1,46.7,498.617c-11.257-5.022-20.372-12.685-26.36-22.158C8.326,457.45,9.8,432.922,24.5,407.391c1.984-3.452,198.516-345.454,209.467-362.878,9.832-15.641,35.143-32.265,62.686-32.265,28.662,0,53.549,16.389,61.343,27.466,5.011,7.121,7.27,11.134,21.963,37.241,10.628,18.883,27.128,48.2,55.285,97.593-.111-.069-.223-.134-.334-.2-.382-.238-.766-.469-1.15-.7-.319-.192-.637-.384-.956-.571-.387-.226-.775-.445-1.163-.664-.319-.181-.638-.362-.959-.537-.391-.214-.784-.421-1.176-.628-.32-.169-.638-.339-.959-.5-.4-.2-.795-.4-1.192-.593-.319-.157-.637-.314-.956-.466-.4-.191-.805-.374-1.208-.557-.317-.145-.635-.292-.954-.431-.407-.179-.815-.349-1.223-.52-.317-.133-.634-.269-.952-.4-.414-.167-.829-.325-1.244-.485-.314-.121-.627-.245-.942-.361-.421-.155-.844-.3-1.266-.448-.311-.109-.621-.221-.934-.325-.429-.143-.86-.276-1.289-.412-.307-.1-.613-.2-.921-.289-.441-.132-.882-.254-1.324-.377-.3-.083-.6-.171-.9-.251-.453-.121-.909-.23-1.365-.342-.288-.071-.576-.147-.866-.214-.474-.11-.95-.209-1.425-.309-.271-.057-.542-.12-.815-.174-.507-.1-1.016-.189-1.525-.279-.241-.042-.482-.09-.723-.13-.562-.093-1.126-.173-1.69-.251-.19-.027-.379-.059-.569-.084-.691-.091-1.383-.169-2.076-.239-.064-.007-.127-.016-.19-.022q-1.144-.113-2.292-.188c-.559-.037-1.12-.06-1.679-.083-20.285-.825-40.6,7.423-59.233,23.992q-3.015,2.68-5.969,5.648l-.069.071c-.359.362-.725.737-1.095,1.12-12.318,12.6-25.548,29.5-39.352,50.283ZM449.5,427.439c-9.871,5.88-19.377,7.635-28.251,5.213-10-2.728-19.022-10.726-26.81-23.774l-89.645-161.2c14.039-19.952,26.561-36.375,35.664-45.808.321-.328.643-.662.961-.984l.1-.1c18.157-18.256,38.01-27.239,57.4-25.972q.956.062,1.908.157c.145.014.289.035.434.05.489.052.979.106,1.467.171.212.028.424.065.637.1.421.061.841.119,1.26.189.241.04.481.09.722.133.39.07.781.137,1.17.215.255.051.509.112.763.167.375.081.75.158,1.123.245.261.061.52.132.78.2.367.091.734.18,1.1.278.261.07.52.149.78.223.365.1.731.2,1.095.315.259.079.517.166.775.249.364.116.729.228,1.092.352.262.089.524.187.786.279.358.127.717.25,1.074.384.262.1.523.2.786.307.356.138.712.274,1.068.419.259.106.516.221.774.33.356.151.714.3,1.07.457.258.115.516.239.773.357.354.163.709.322,1.063.492.258.124.515.257.774.385.351.174.7.345,1.053.526.256.132.512.273.767.409.351.187.7.37,1.052.564.252.139.5.287.754.429.352.2.7.4,1.054.6.251.148.5.3.748.454.351.212.7.421,1.051.64.246.155.492.318.739.476.351.225.7.447,1.051.679.244.163.488.333.732.5.349.237.7.472,1.045.715.245.172.488.351.732.526.345.248.692.494,1.036.749.241.179.482.366.723.548.345.261.689.519,1.033.787.24.187.478.382.717.572.342.272.685.542,1.026.821.239.2.477.4.716.6.339.283.678.565,1.015.855.238.2.473.415.709.622.337.3.673.588,1.01.89.237.214.473.435.71.652.332.3.664.607.993.918.237.223.472.453.707.678.329.316.659.63.986.952.235.23.467.468.7.7.327.327.653.652.978.986.235.241.468.49.7.735.321.335.641.669.961,1.01.234.251.467.509.7.763.316.346.634.689.949,1.041.233.26.464.526.7.789.313.356.627.71.938,1.072.231.269.462.545.692.817.31.366.619.729.927,1.1.229.278.458.562.687.844.306.375.611.75.916,1.131.23.288.457.583.685.875.257.328.514.656.77.989L486.826,265.6l.074.127C520.739,322.539,488.476,404.222,449.5,427.439Z" transform="matrix(0.978, 0.208, -0.208, 0.978, 440.368, 5067.813)"/></g><rect class="b" width="700" height="700" transform="translate(260 4999)"/></g></svg>