<svg xmlns="http://www.w3.org/2000/svg" width="700" height="700" viewBox="0 0 700 700"><defs><style>.a{opacity:0.19;}.b,.c{fill:none;}.b{stroke:#fff;stroke-width:12px;}</style></defs><g transform="translate(-2700 -1873)"><g transform="translate(2449 -3116)"><g class="a" transform="translate(342.524 5099.347)"><path class="b" d="M1136.687,712.842,1283.44,454.09c39.69-71.134,144.029-80.6,189.236,0l24.892,41.2,78.119,140.2s6.463,10.315,7.938,12.89c.01-.031-7.849-9.708-7.937-9.808-6.335-7.147-30.436-44.584-76.323-44.584-50.76,0-95.245,65.59-104.372,79.848S1313.434,814.7,1313.434,814.7C1243.6,935.874,1066.854,834.014,1136.687,712.842Z" transform="translate(-1120.657 -400.847)"/><path class="b" d="M1297.882,707.945c71.937,125.712,248.524,18.17,176.586-107.543,0,0-49.7-105.634-115.491-105.634s-117.485,108.865-117.485,108.865Z" transform="matrix(1, 0.017, -0.017, 1, -967.429, -323.555)"/></g><rect class="c" width="700" height="700" transform="translate(251 4989)"/></g></g></svg>